<?xml version="1.0" standalone="no"?>
<!DOCTYPE svg PUBLIC "-//W3C//DTD SVG 20010904//EN"
 "http://www.w3.org/TR/2001/REC-SVG-20010904/DTD/svg10.dtd">
<svg version="1.0" xmlns="http://www.w3.org/2000/svg"
 width="1280.000000pt" height="1280.000000pt" viewBox="0 0 1280.000000 1280.000000"
 preserveAspectRatio="xMidYMid meet">
<g transform="translate(0.000000,1280.000000) scale(0.100000,-0.100000)"
fill="#000000" stroke="none">
<path d="M7845 12541 c-80 -36 -365 -265 -908 -730 -463 -395 -869 -705 -1024
-781 l-63 -30 0 -74 c0 -91 -21 -126 -76 -126 -28 0 -37 -5 -47 -27 -6 -15
-20 -36 -29 -45 -13 -13 -18 -34 -18 -78 0 -69 -14 -83 -92 -95 -46 -6 -48 -7
-48 -39 0 -64 -75 -115 -128 -87 -28 15 -43 -6 -36 -50 6 -37 -5 -54 -41 -60
-12 -3 -28 -21 -40 -45 -31 -65 -43 -74 -91 -74 -32 0 -44 -4 -44 -15 0 -8 -8
-19 -18 -24 -10 -5 -26 -35 -36 -66 -21 -68 -47 -84 -100 -58 -47 22 -62 13
-75 -49 -7 -29 -23 -70 -36 -90 -14 -21 -103 -102 -199 -182 -96 -79 -177
-149 -181 -155 -9 -16 -48 -14 -71 4 -30 22 -62 19 -66 -7 -2 -14 -15 -28 -35
-37 -17 -8 -36 -25 -42 -38 -6 -13 -18 -26 -26 -29 -8 -4 -15 -17 -15 -31 0
-13 -12 -35 -27 -49 -23 -21 -25 -28 -15 -44 7 -11 12 -25 12 -32 -1 -18 -204
-238 -276 -299 -59 -49 -119 -75 -153 -64 -11 3 -25 -3 -36 -15 -15 -17 -16
-24 -7 -46 22 -47 15 -74 -23 -90 -19 -7 -45 -14 -58 -14 -13 0 -32 -9 -42
-20 -10 -11 -24 -20 -30 -20 -7 0 -16 -19 -19 -44 -8 -50 -17 -61 -72 -79 -24
-9 -45 -25 -55 -43 -14 -26 -21 -29 -65 -29 l-49 0 0 -52 c-1 -68 -22 -93 -80
-93 -41 0 -42 -1 -56 -47 -14 -46 -15 -47 -83 -70 -39 -13 -80 -23 -92 -23
-33 0 -47 -24 -40 -69 l6 -38 -434 -337 c-289 -225 -443 -350 -460 -376 -14
-22 -27 -40 -29 -40 -1 0 -16 4 -34 9 -41 12 -53 2 -92 -73 -17 -33 -36 -65
-41 -71 -6 -7 -9 -23 -8 -36 2 -17 -1 -23 -12 -20 -8 2 -40 4 -70 4 -104 2
-184 -50 -428 -280 -310 -293 -779 -818 -1053 -1179 -85 -112 -210 -336 -196
-350 24 -24 316 209 972 776 503 435 746 623 772 596 10 -10 -64 -157 -128
-257 -36 -54 -78 -103 -114 -133 -71 -58 -91 -82 -136 -171 -20 -38 -50 -96
-68 -128 -41 -73 -57 -172 -60 -374 -2 -151 -2 -153 23 -178 43 -43 129 -27
274 50 110 59 122 72 143 161 10 44 19 101 19 127 0 52 -24 115 -47 124 -26
10 -12 31 40 58 28 15 57 32 64 39 7 6 37 66 67 133 63 142 178 353 213 391
l24 27 16 -25 c36 -55 135 -138 361 -302 129 -95 274 -209 321 -252 239 -220
341 -319 341 -328 0 -16 -82 -4 -245 36 -309 74 -397 108 -520 201 -88 66
-110 75 -178 75 -115 -1 -183 -48 -222 -152 -124 -328 -154 -390 -263 -531
-34 -45 -89 -117 -121 -159 -79 -103 -175 -300 -200 -408 -25 -110 -45 -415
-30 -459 24 -68 113 -80 216 -29 72 35 186 136 230 202 28 42 29 46 27 159 -1
63 -5 125 -9 136 -3 12 -27 35 -51 52 -47 32 -53 56 -13 51 56 -8 103 -3 127
15 16 12 46 71 91 179 80 190 183 390 229 445 l33 39 37 -21 c20 -11 62 -38
92 -60 30 -22 161 -99 290 -171 301 -168 405 -227 565 -322 265 -157 319 -174
519 -154 l120 12 30 -40 c65 -83 132 -141 184 -158 28 -9 70 -34 94 -55 122
-106 374 -302 468 -364 136 -90 472 -255 624 -307 66 -22 169 -49 230 -60 96
-17 322 -40 392 -40 19 0 30 -13 58 -69 29 -56 57 -89 156 -182 73 -69 128
-129 140 -155 35 -72 69 -228 90 -417 25 -228 59 -414 115 -632 63 -248 62
-224 10 -430 -26 -99 -58 -207 -73 -240 -35 -80 -301 -433 -390 -517 -40 -39
-100 -112 -138 -170 -40 -60 -113 -149 -179 -217 -61 -64 -116 -127 -122 -141
-6 -14 -50 -74 -97 -133 -47 -60 -86 -117 -86 -128 0 -73 172 -109 356 -74
122 23 160 47 207 130 41 74 42 86 16 171 -15 50 -7 85 30 127 28 30 33 32
102 32 68 0 73 2 83 25 6 14 21 40 34 58 22 30 28 32 80 32 90 0 231 19 262
35 16 8 45 34 64 58 36 43 36 45 26 97 -12 61 -7 82 26 127 39 51 89 76 168
82 l70 6 12 45 c17 64 91 221 337 723 129 261 219 456 222 481 12 79 -7 118
-114 229 -101 105 -208 242 -242 310 l-20 38 38 36 c21 19 90 76 153 127 128
103 310 289 402 410 135 179 214 402 207 583 -3 71 -3 74 26 98 25 20 41 24
98 25 42 0 90 -8 127 -20 47 -16 74 -19 127 -14 51 5 93 1 168 -16 108 -24
373 -40 345 -21 -24 16 -7 22 101 32 242 22 312 32 454 67 83 19 142 38 133
40 -10 2 -64 -9 -120 -23 -145 -38 -238 -53 -375 -61 -174 -10 -187 5 -36 40
264 62 332 79 408 108 125 47 715 330 715 343 0 2 -55 -21 -122 -51 -180 -81
-448 -187 -455 -181 -3 3 53 34 123 68 71 34 140 70 154 79 14 10 102 59 195
109 94 51 190 109 215 131 l45 39 -100 -43 c-55 -24 -224 -104 -375 -178 -151
-75 -286 -139 -300 -142 -24 -7 -24 -7 5 18 17 14 26 25 20 26 -5 0 1 7 13 16
12 8 26 13 31 9 11 -6 106 35 136 59 16 13 17 15 3 10 -68 -23 82 69 267 165
55 29 111 63 125 75 14 13 58 44 98 69 74 48 102 76 36 37 -20 -11 -43 -19
-50 -16 -13 5 -219 -97 -276 -136 -15 -10 -46 -25 -70 -33 l-43 -15 30 25 c16
13 55 39 88 57 98 56 390 245 427 278 31 27 28 26 -35 -11 -38 -23 -88 -54
-110 -68 -56 -38 -135 -83 -135 -77 0 3 35 33 78 67 42 35 99 83 126 107 27
23 119 96 205 161 255 194 316 262 83 94 -57 -42 -105 -73 -107 -71 -2 2 43
44 102 93 170 144 324 284 243 222 -77 -59 -90 -68 -90 -62 0 4 15 21 33 38
38 37 24 29 -63 -32 -92 -65 -201 -134 -230 -147 -14 -6 -65 -44 -115 -83 -97
-78 -233 -167 -241 -158 -3 2 39 40 93 82 117 93 452 421 495 485 22 32 24 39
9 26 -12 -11 -24 -17 -27 -13 -3 3 35 56 85 118 50 62 91 117 91 123 0 5 -62
-50 -137 -125 -137 -134 -471 -436 -498 -452 -43 -24 -1 29 119 149 138 137
226 247 226 281 0 11 23 53 52 94 28 41 44 68 35 60 -15 -12 -17 -11 -17 4 0
9 7 42 16 72 15 52 14 90 -1 41 -4 -13 -22 -39 -39 -59 -17 -20 -40 -51 -51
-70 l-20 -34 -3 38 c-2 28 6 57 29 105 18 38 35 93 40 131 12 96 11 101 -16
49 -14 -26 -35 -58 -48 -72 -13 -14 -38 -52 -55 -83 -35 -64 -80 -119 -89
-109 -3 3 4 29 16 58 13 29 25 59 29 67 3 9 1 12 -6 7 -7 -4 -12 -4 -12 1 0
20 60 167 75 183 17 19 55 129 55 158 -1 26 -14 -1 -40 -83 -22 -68 -66 -125
-96 -125 -14 0 -67 -98 -78 -145 -9 -37 -44 -95 -57 -95 -23 0 -19 34 12 100
18 39 37 74 44 78 16 10 49 77 74 153 19 57 30 107 56 244 3 17 -3 7 -13 -20
-11 -28 -31 -75 -46 -106 -14 -31 -26 -61 -26 -67 0 -15 -54 -122 -75 -147
-15 -19 -16 -17 -10 35 3 30 12 75 20 100 51 156 83 422 65 540 -6 36 -17 123
-26 195 -8 71 -16 131 -18 132 -2 2 -6 -45 -10 -104 -4 -60 -11 -128 -17 -153
-5 -25 -16 -81 -24 -124 -8 -44 -19 -84 -25 -90 -5 -5 -10 -24 -10 -42 0 -17
-5 -46 -12 -65 -12 -34 -12 -34 -19 -9 -6 22 -7 21 -8 -10 -1 -19 -5 -42 -10
-49 -8 -12 -11 -9 -16 11 -4 14 -8 41 -9 59 -5 58 -6 60 -16 54 -6 -4 -10 19
-10 62 0 67 0 68 -15 39 -11 -21 -16 -72 -19 -190 -5 -188 -34 -376 -58 -376
-6 0 -8 20 -5 53 16 136 19 245 8 251 -6 4 -11 35 -11 69 0 91 -19 111 -21 22
-6 -212 -9 -231 -30 -179 -12 27 -13 22 -20 -61 -11 -118 -25 -165 -69 -233
-20 -31 -39 -65 -43 -74 -3 -10 -12 -18 -18 -18 -8 0 -9 15 -5 48 l7 47 -36
-65 c-19 -36 -45 -92 -57 -125 -11 -33 -27 -64 -34 -68 -8 -4 -14 -18 -14 -30
0 -21 -101 -210 -146 -272 -12 -17 -45 -70 -74 -118 -28 -49 -54 -86 -57 -84
-5 6 52 121 81 162 28 40 87 157 82 163 -3 2 -17 -19 -33 -48 -15 -29 -41 -67
-56 -84 -22 -25 -16 -7 32 91 33 67 65 124 70 127 5 4 12 20 16 36 4 17 11 30
16 30 12 0 12 -27 -1 -35 -15 -10 -12 -35 5 -35 9 0 15 9 14 23 -2 72 27 169
43 145 4 -7 5 1 2 19 -4 18 -3 40 0 50 6 15 8 15 17 3 8 -13 11 -13 23 2 17
23 43 150 52 251 3 42 11 77 16 77 19 0 -9 280 -34 344 -11 28 -12 26 -25 -45
-7 -41 -10 -98 -6 -126 4 -37 2 -53 -6 -53 -6 0 -11 8 -11 17 0 39 -19 -6 -24
-57 -3 -30 -8 -73 -11 -95 -3 -22 -8 -59 -11 -82 -3 -24 -10 -43 -16 -43 -7 0
-8 14 -4 38 5 35 3 39 -25 49 -23 9 -31 9 -34 0 -2 -7 -21 -64 -41 -127 -69
-216 -106 -315 -167 -440 -64 -133 -84 -142 -43 -19 14 40 23 75 20 78 -2 2
-20 -29 -39 -70 -30 -65 -74 -134 -75 -119 0 3 17 48 39 100 99 244 176 518
158 564 -12 31 -24 15 -36 -46 -6 -35 -16 -76 -22 -93 -5 -16 -43 -129 -83
-250 -79 -235 -119 -335 -135 -335 -5 0 -17 24 -26 53 -186 578 -636 1201
-1120 1549 -295 212 -531 300 -796 299 -127 -1 -120 -4 -179 73 -17 21 -30 45
-30 52 0 7 -18 28 -40 45 -23 18 -54 53 -70 77 -16 24 -46 63 -67 88 -21 24
-56 65 -79 92 -22 26 -86 109 -142 184 -56 75 -131 162 -166 194 -45 39 -73
74 -91 113 -15 30 -40 70 -56 88 -16 19 -32 46 -35 61 -4 15 -22 44 -40 65
-19 20 -34 43 -34 50 0 19 -53 149 -73 178 -9 14 -17 46 -18 75 -1 65 -26 168
-54 224 -21 40 -22 49 -10 76 10 26 10 40 0 81 -15 56 -39 108 -55 118 -6 4
-22 25 -36 47 -14 22 -39 45 -55 51 -16 6 -29 17 -29 24 0 35 -167 122 -238
125 -60 2 -261 -18 -287 -28 -75 -29 -185 -122 -185 -156 0 -10 -10 -22 -23
-27 -14 -6 -38 -38 -65 -91 -52 -99 -63 -176 -32 -219 17 -24 18 -31 6 -81
-16 -68 -35 -80 -134 -80 -76 0 -98 -7 -145 -46 -16 -13 -33 -24 -38 -24 -5 0
-26 16 -46 35 -20 19 -41 35 -45 35 -10 0 -48 75 -48 95 0 15 167 202 298 333
59 60 119 91 173 92 46 0 76 29 60 59 -15 27 -14 76 2 89 7 6 33 14 57 18 23
4 51 15 62 26 10 10 24 18 32 18 9 0 16 17 20 45 8 49 28 69 86 85 28 8 38 17
45 42 10 34 24 38 90 26 18 -3 20 3 21 51 1 46 5 58 28 78 18 15 40 23 65 23
37 0 38 0 57 63 l19 62 78 3 c55 2 80 7 83 17 3 7 18 17 34 20 25 5 28 11 32
54 3 32 14 60 32 84 15 20 136 139 269 264 562 530 931 886 1233 1187 318 319
399 406 392 425 -2 6 -20 2 -43 -8z m-3501 -3443 c12 -17 16 -50 16 -146 0
-185 35 -332 80 -332 45 0 183 63 255 116 25 19 44 23 115 24 107 2 217 -13
237 -33 14 -13 13 -29 -7 -145 -12 -72 -20 -139 -17 -149 3 -13 7 -8 12 15 12
51 24 37 21 -25 -3 -53 -9 -69 -75 -173 l-73 -115 5 -80 c6 -94 30 -165 82
-235 50 -68 95 -100 173 -126 61 -19 66 -23 83 -65 26 -63 24 -93 -7 -114 -30
-20 -129 -49 -161 -47 -13 1 -43 2 -67 3 -30 2 -54 -4 -73 -17 -43 -29 -54
-32 -98 -19 -49 15 -57 46 -25 107 36 68 34 68 -182 -51 -69 -38 -79 -47 -88
-81 -13 -49 -61 -89 -157 -132 -50 -21 -72 -36 -68 -45 5 -14 -108 -93 -132
-93 -21 0 -15 12 33 73 25 32 44 60 42 62 -2 2 -27 -16 -57 -41 -31 -26 -63
-44 -77 -44 -33 0 -86 -28 -81 -43 2 -7 16 -12 31 -13 36 -1 40 -8 24 -41 -12
-25 -20 -29 -74 -34 -36 -3 -79 -16 -109 -32 -28 -14 -67 -29 -88 -32 -31 -5
-51 -19 -100 -71 -34 -36 -80 -75 -102 -88 -47 -28 -159 -143 -200 -203 -15
-24 -32 -43 -37 -43 -5 0 -40 17 -76 39 -109 63 -246 106 -531 166 -236 50
-349 95 -436 173 -27 24 -60 49 -72 55 -30 13 -29 31 2 45 22 10 25 17 23 53
-3 40 -1 44 39 68 25 15 194 193 405 424 l362 398 46 -6 c50 -7 66 3 67 40 1
11 15 50 32 87 30 67 34 71 96 80 13 2 22 15 27 43 13 63 34 78 95 72 61 -6
76 5 67 52 -7 35 8 61 38 61 13 0 24 12 35 38 22 54 42 72 78 72 41 0 90 46
104 97 13 48 38 83 58 83 8 0 28 -8 44 -17 39 -23 62 -9 71 46 13 78 54 125
238 275 58 47 108 86 112 86 4 0 14 -10 22 -22z m2147 -1326 c23 -44 27 -47
82 -60 45 -10 65 -20 85 -45 14 -17 46 -51 70 -74 l45 -41 -31 -54 c-78 -137
-114 -356 -93 -562 52 -496 294 -1030 694 -1531 53 -65 94 -121 92 -123 -2 -3
-55 30 -117 71 -133 89 -245 144 -458 221 -333 121 -532 212 -679 310 -99 66
-151 114 -194 178 -22 33 -23 42 -15 80 5 24 18 60 28 80 14 29 15 38 5 42
-10 3 -14 27 -14 78 0 46 -8 101 -22 148 -14 46 -24 112 -26 171 -4 85 -1 103
20 155 14 33 34 95 46 139 31 116 41 138 140 310 50 86 107 200 127 253 20 53
54 133 75 177 21 44 39 85 39 92 0 21 28 41 53 36 17 -3 32 -19 48 -51z m3288
-1145 c-7 -31 -16 -57 -20 -57 -13 0 -11 21 7 74 21 62 27 54 13 -17z m-52
-139 c-3 -8 -6 -5 -6 6 -1 11 2 17 5 13 3 -3 4 -12 1 -19z m228 -20 c-12 -42
-78 -178 -86 -178 -9 0 15 76 30 94 4 6 16 32 26 59 18 47 42 67 30 25z m-324
-195 c-12 -20 -14 -14 -5 12 4 9 9 14 11 11 3 -2 0 -13 -6 -23z m488 -35 c-34
-66 -101 -170 -106 -164 -3 3 23 56 58 117 34 62 64 108 66 102 3 -7 -6 -31
-18 -55z m144 37 c-3 -9 -8 -14 -10 -11 -3 3 -2 9 2 15 9 16 15 13 8 -4z m297
-64 c0 -5 -9 -19 -20 -32 -17 -21 -19 -21 -13 -4 10 33 33 57 33 36z m99 -458
c-8 -9 -38 -34 -68 -57 -82 -63 -91 -69 -91 -63 0 6 161 137 168 137 3 0 -2
-7 -9 -17z m-563 -658 c-11 -8 -25 -15 -30 -15 -6 0 -2 7 8 15 11 8 25 15 30
15 6 0 2 -7 -8 -15z m-2263 -174 c56 -43 134 -99 173 -124 40 -25 74 -50 78
-55 8 -14 -130 -156 -147 -149 -7 3 -19 25 -26 48 -22 74 -78 183 -134 261
-30 41 -57 80 -61 86 -18 29 23 6 117 -67z m-778 -2393 c31 -76 33 -296 2
-285 -6 2 -15 17 -19 33 -12 44 -31 261 -25 279 10 26 24 17 42 -27z"/>
<path d="M9571 6924 c0 -11 3 -14 6 -6 3 7 2 16 -1 19 -3 4 -6 -2 -5 -13z"/>
<path d="M9562 6630 c0 -14 2 -19 5 -12 2 6 2 18 0 25 -3 6 -5 1 -5 -13z"/>
<path d="M10551 6577 c-13 -17 -62 -127 -56 -127 9 0 57 83 65 112 10 31 8 34
-9 15z"/>
<path d="M10711 6353 c-17 -31 -29 -58 -27 -61 3 -2 19 23 35 57 39 77 33 80
-8 4z"/>
<path d="M10889 5943 c-13 -16 -12 -17 4 -4 9 7 17 15 17 17 0 8 -8 3 -21 -13z"/>
<path d="M10770 5387 c-36 -24 -116 -71 -178 -105 -132 -73 -230 -137 -192
-127 52 14 469 274 440 274 -3 0 -34 -19 -70 -42z"/>
<path d="M10775 5179 c-27 -17 -54 -36 -60 -41 -13 -13 62 25 100 51 47 33 16
24 -40 -10z"/>
<path d="M10505 5150 c-3 -6 1 -7 9 -4 18 7 21 14 7 14 -6 0 -13 -4 -16 -10z"/>
<path d="M10513 5050 c-35 -16 -63 -31 -63 -35 0 -6 49 14 105 43 59 31 30 26
-42 -8z"/>
<path d="M9820 4900 c-9 -6 -10 -10 -3 -10 6 0 15 5 18 10 8 12 4 12 -15 0z"/>
<path d="M9685 4525 c-27 -7 -61 -18 -75 -24 -22 -10 -21 -11 13 -6 50 8 158
43 132 43 -11 1 -42 -5 -70 -13z"/>
</g>
</svg>
